<svg xmlns="http://www.w3.org/2000/svg" xmlns:xlink="http://www.w3.org/1999/xlink" viewBox="0 0 222.41 249.85"><defs><style>.cls-1,.cls-2,.cls-3{fill-rule:evenodd;}.cls-1{fill:url(#GradientFill_1);}.cls-2{fill:#0062af;}.cls-3{fill:url(#GradientFill_1-2);}</style><linearGradient id="GradientFill_1" x1="192.46" y1="142.78" x2="63.79" y2="49.3" gradientUnits="userSpaceOnUse"><stop offset="0" stop-color="#00aeef"/><stop offset="1" stop-color="#8ed8f8"/></linearGradient><linearGradient id="GradientFill_1-2" x1="7.36" y1="184.77" x2="122.02" y2="156.19" xlink:href="#GradientFill_1"/></defs><g id="Layer_2" data-name="Layer 2"><g id="Layer_1-2" data-name="Layer 1"><path class="cls-1" d="M59.16,6.31c47.51,10.27,95.58,39.51,131.15,70.05,21,18,34,36,31.87,53.63-2.87,24.1-35.88,50-55.08,60.74,17.9-42-47.8-94.2-90-127.47C68.41,56.39,34.58,32.52,28,16.53,20-2.88,50.91,4.52,59.16,6.31Z"/><path class="cls-2" d="M22.77,0C9.59,10.83,15.37,30.7,62.86,70.45c32.91,30.09,66.28,60.25,80.19,87.42,13.71,26.75,4.81,45-18.46,58.82-19.6,11.63-42,21-66.72,28.31,27.61-30.52,28.26-75.13-14.08-142.24-1.14-1.94-2.41-3.92-3.84-6C27,75.25-31.68,7.65,22.77,0Z"/><path class="cls-3" d="M57.87,245l-2.45.72C44,248.43,33.65,250,25.11,249.84c-29.82-.66-27.8-26.72-17.75-46.29,17.58-34.23,59-62.38,36.43-100.79C86.13,169.87,85.48,214.48,57.87,245Z"/></g></g></svg>